<?xml version="1.0"?>
<svg xmlns="http://www.w3.org/2000/svg" id="Capa_1" enable-background="new 0 0 512 512" height="512px" viewBox="0 0 512 512" width="512px"><g><g><g><path d="m505.547 264.774c8.387-13.624 6.558-31.762-5.068-43.393-.769-.77-1.574-1.503-2.412-2.199 1.67-15.007-3.49-29.94-14.284-40.738-2.126-2.127-4.446-4.062-6.932-5.78-.076-9.006-3.683-17.772-10.095-24.158-7.023-7.054-16.499-10.597-26.102-10.088-1.763-10.629-6.776-20.424-14.557-28.208-10.352-10.356-24.637-15.898-39.265-15.225-14.611-.673-28.912 4.867-39.254 15.215-5.863 5.845-10.182 12.965-12.702 20.734-6.068-3.135-12.881-4.544-19.752-4.045-1.82-11.931-7.367-22.938-16.071-31.646-11.334-11.37-27.016-17.431-43.069-16.679-16.033-.758-31.704 5.308-43.062 16.672-8.697 8.701-14.236 19.71-16.052 31.654-6.863-.497-13.678.913-19.754 4.044-2.519-7.751-6.832-14.867-12.687-20.724-10.351-10.358-24.642-15.913-39.292-15.225-14.616-.681-28.912 4.866-39.264 15.224-7.77 7.773-12.775 17.568-14.532 28.21-9.597-.508-19.074 3.03-26.105 10.064-6.524 6.498-10.076 15.106-10.105 24.178-2.487 1.715-4.813 3.651-6.951 5.79-10.783 10.816-15.94 25.746-14.276 40.731-.838.696-1.644 1.43-2.413 2.199-11.617 11.622-13.437 29.756-5.045 43.385-4.23 8.106-6.446 17.167-6.446 26.494 0 12.297 3.815 24 11.033 33.845 2.449 3.34 7.143 4.063 10.483 1.614s4.063-7.143 1.614-10.483c-5.319-7.255-8.13-15.891-8.13-24.976 0-8.206 2.309-16.113 6.678-22.868 1.806-2.791 1.558-6.438-.608-8.96-6.842-7.966-6.389-20.021 1.032-27.445 1.145-1.146 2.434-2.155 3.829-3.002 2.728-1.654 4.111-4.854 3.446-7.975-2.472-11.615 1.052-23.566 9.42-31.961 2.288-2.288 4.894-4.252 7.747-5.835 2.712-1.505 4.217-4.524 3.788-7.596-.861-6.158 1.141-12.174 5.502-16.519 5.246-5.248 12.885-7.054 19.938-4.707 2.292.762 4.813.372 6.769-1.045 1.957-1.419 3.109-3.692 3.098-6.109-.049-9.995 3.802-19.38 10.844-26.425 7.441-7.444 17.744-11.388 28.253-10.83.267.014.534.014.801 0 10.541-.562 20.842 3.386 28.283 10.83 5.684 5.687 9.344 13.032 10.478 20.926-.021.027-.036.056-.057.083-4.878 6.53-7.529 14.541-7.494 22.698-2.846 1.938-5.516 4.148-7.973 6.607-11.93 11.937-17.583 28.479-15.609 45.059-1.026.835-2.014 1.727-2.958 2.672-12.762 12.768-14.667 32.749-5.248 47.623-4.804 9.02-7.322 19.112-7.322 29.486 0 6.946 1.143 13.62 3.218 19.86.011.033.016.066.027.099-3.248-.025-6.469-.347-9.651-.96-2.215-.427-10.824-3.218-12.588-4.019-3.411-1.552-7.439-.344-9.44 2.822-7.496 11.859-20.163 18.939-33.884 18.939-2.967 0-5.993-.34-8.995-1.011-4.043-.904-8.052 1.642-8.955 5.684s1.641 8.052 5.684 8.955c4.073.91 8.2 1.372 12.266 1.372 14.951 0 28.959-6.078 39.243-16.654v65.492h-12.057c-4.142 0-7.5 3.357-7.5 7.5s3.358 7.5 7.5 7.5h19.559 46.177 19.559c4.142 0 7.5-3.357 7.5-7.5s-3.358-7.5-7.5-7.5h-12.059v-43.091c6.99 2.874 14.617 4.463 22.604 4.463 15.095 0 29.331-5.655 40.307-15.621 2.358-1.152 4.607-2.472 6.76-3.92v27.497c0 4.143 3.358 7.5 7.5 7.5s7.5-3.357 7.5-7.5v-27.5c5.124.779 10.323 1.046 15.574.754 5.257.288 10.466.034 15.602-.744v80.116h-31.176v-21.484c0-4.143-3.358-7.5-7.5-7.5s-7.5 3.357-7.5 7.5v21.484h-12.059c-4.142 0-7.5 3.357-7.5 7.5s3.358 7.5 7.5 7.5h85.295c4.143 0 7.5-3.357 7.5-7.5s-3.357-7.5-7.5-7.5h-12.06v-83.417c11.476 14.407 28.605 22.837 47.039 22.837 7.998 0 15.635-1.593 22.633-4.475v43.075h-12.06c-4.143 0-7.5 3.357-7.5 7.5s3.357 7.5 7.5 7.5h85.267c4.143 0 7.5-3.357 7.5-7.5s-3.357-7.5-7.5-7.5h-12.06v-65.478c10.268 10.583 24.277 16.668 39.244 16.668 30.52 0 55.349-25.323 55.349-56.45 0-9.292-2.219-18.351-6.453-26.486zm-364.806 131.775h-31.177v-66.649c5.112.888 10.303 1.211 15.547.922 1.035.064 2.088.095 3.151.106 3.468 5.158 7.682 9.755 12.479 13.631zm192.886-53.629c-15.539 0-29.879-8.022-38.359-21.46-1.413-2.238-3.84-3.498-6.347-3.498-1.039 0-2.093.217-3.093.67-9.409 4.267-19.296 6.118-29.385 5.499-.305-.018-.61-.018-.915 0-8.711.531-17.263-.777-25.474-3.887-2.661-1.017-5.221-2.649-8.174-2.179-2.125.338-4.012 1.607-5.163 3.419-2.095 3.292-4.584 6.319-7.397 9.006-8.353 7.92-19.333 12.43-30.975 12.43-25.203 0-45.707-21.062-45.707-46.952 0-9.253 2.623-18.201 7.585-25.876 1.805-2.791 1.557-6.438-.609-8.959-7.893-9.188-7.364-23.1 1.204-31.672 1.341-1.343 2.815-2.502 4.379-3.445 2.736-1.65 4.126-4.854 3.463-7.979-2.804-13.209 1.205-26.78 10.724-36.305 2.633-2.635 5.595-4.876 8.803-6.661 2.712-1.51 4.214-4.534 3.778-7.607-.988-6.962 1.387-14.086 6.354-19.056 6.058-6.061 14.885-8.145 23.033-5.443 2.293.761 4.811.371 6.765-1.047 1.955-1.418 3.107-3.689 3.097-6.104-.05-11.331 4.324-21.976 12.318-29.974 8.445-8.449 20.125-12.919 32.046-12.276.271.014.542.014.813 0 11.947-.659 23.62 3.823 32.046 12.276 8.012 8.017 12.396 18.661 12.347 29.974-.011 2.415 1.142 4.687 3.097 6.104 1.954 1.417 4.472 1.807 6.765 1.047 8.153-2.702 16.965-.62 23.016 5.454 4.979 4.96 7.36 12.08 6.372 19.045-.435 3.064 1.058 6.081 3.757 7.596 3.199 1.794 6.176 4.047 8.824 6.673 9.525 9.53 13.524 23.097 10.698 36.292-.67 3.129.72 6.34 3.461 7.992 1.563.943 3.037 2.104 4.38 3.446 8.576 8.58 9.116 22.491 1.23 31.671-2.161 2.517-2.413 6.154-.618 8.944 4.95 7.695 7.566 16.648 7.566 25.891.001 25.888-20.503 46.951-45.705 46.951zm68.78 53.6h-31.147v-51.985c4.784-3.871 8.988-8.459 12.449-13.606 1.057-.011 2.106-.042 3.153-.107 5.239.291 10.43-.032 15.546-.921v66.619zm54.244-63.81c-13.729 0-26.382-7.077-33.85-18.931-1.412-2.241-3.841-3.503-6.35-3.503-1.038 0-2.09.216-3.089.668-7.188 3.253-14.66 4.924-22.268 4.981.025-.074.038-.149.061-.223 2.049-6.203 3.177-12.835 3.177-19.735 0-10.358-2.511-20.448-7.3-29.478 9.418-14.869 7.503-34.855-5.27-47.632-.942-.943-1.928-1.833-2.952-2.666 1.999-16.575-3.647-33.12-15.61-45.088-2.464-2.443-5.125-4.643-7.949-6.571.036-8.108-2.579-16.068-7.394-22.563-.055-.075-.101-.155-.157-.23 1.134-7.914 4.791-15.257 10.479-20.927 7.44-7.444 17.748-11.385 28.255-10.83.266.014.533.014.799 0 10.531-.555 20.815 3.387 28.256 10.83 7.061 7.063 10.921 16.448 10.872 26.425-.012 2.417 1.142 4.69 3.098 6.109 1.955 1.416 4.475 1.808 6.769 1.045 7.055-2.349 14.68-.546 19.922 4.72 4.366 4.348 6.378 10.363 5.519 16.505-.429 3.062 1.066 6.074 3.766 7.584 2.856 1.599 5.46 3.565 7.74 5.847 8.376 8.38 11.897 20.328 9.421 31.962-.664 3.12.719 6.32 3.446 7.975 1.397.847 2.686 1.856 3.829 3.001 7.43 7.434 7.896 19.489 1.062 27.446-2.161 2.517-2.413 6.153-.619 8.943 4.376 6.805 6.688 14.718 6.688 22.885-.002 22.856-18.103 41.451-40.351 41.451z" data-original="#000000" class="active-path" data-old_color="#000000" fill="#F8F8F8"/><path d="m185.463 254.584c-2.948 2.91-2.979 7.659-.068 10.606 2.91 2.948 7.658 2.979 10.606.069 5.677-5.605 12.189-5.604 17.865-.001 1.461 1.443 3.366 2.163 5.269 2.163 1.936 0 3.871-.745 5.338-2.23 2.91-2.948 2.879-7.696-.068-10.606-11.464-11.319-27.478-11.317-38.942-.001z" data-original="#000000" class="active-path" data-old_color="#000000" fill="#F8F8F8"/><path d="m281.18 257.855c-2.942 2.915-2.965 7.663-.05 10.606 2.915 2.942 7.664 2.965 10.606.05 5.669-5.616 12.176-5.618 17.847 0 1.463 1.449 3.371 2.172 5.278 2.172 1.931 0 3.862-.741 5.328-2.222 2.915-2.943 2.893-7.691-.05-10.606-11.469-11.36-27.488-11.361-38.959 0z" data-original="#000000" class="active-path" data-old_color="#000000" fill="#F8F8F8"/><path d="m234.38 182.389c-2.943 2.915-2.966 7.663-.051 10.606 2.916 2.942 7.664 2.964 10.606.05 5.672-5.617 12.177-5.617 17.847 0 1.463 1.449 3.371 2.172 5.278 2.172 1.931 0 3.862-.741 5.328-2.222 2.915-2.943 2.893-7.691-.05-10.606-11.469-11.362-27.489-11.362-38.958 0z" data-original="#000000" class="active-path" data-old_color="#000000" fill="#F8F8F8"/><path d="m73.691 209.072c4.63-4.58 9.939-4.578 14.566 0 1.462 1.446 3.369 2.168 5.274 2.168 1.933 0 3.866-.743 5.332-2.226 2.914-2.944 2.888-7.693-.057-10.606-10.5-10.385-25.165-10.386-35.665 0-2.945 2.913-2.971 7.662-.058 10.606 2.915 2.946 7.663 2.972 10.608.058z" data-original="#000000" class="active-path" data-old_color="#000000" fill="#F8F8F8"/><path d="m41.542 260.404c-2.944 2.913-2.97 7.662-.057 10.606 2.913 2.945 7.662 2.971 10.606.058 4.627-4.58 9.936-4.581 14.565 0 1.462 1.446 3.369 2.168 5.274 2.168 1.933 0 3.866-.743 5.332-2.226 2.914-2.944 2.888-7.693-.057-10.606-10.498-10.386-25.163-10.387-35.663 0z" data-original="#000000" class="active-path" data-old_color="#000000" fill="#F8F8F8"/><path d="m428.902 209.015c2.913-2.944 2.888-7.693-.058-10.606-10.498-10.385-25.164-10.386-35.664 0-2.944 2.913-2.971 7.661-.058 10.606 1.467 1.483 3.399 2.226 5.332 2.226 1.906 0 3.812-.722 5.274-2.168 4.629-4.58 9.938-4.578 14.566 0 2.946 2.911 7.694 2.886 10.608-.058z" data-original="#000000" class="active-path" data-old_color="#000000" fill="#F8F8F8"/><path d="m414.781 260.404c-2.945 2.913-2.971 7.662-.058 10.606 2.913 2.946 7.662 2.97 10.606.058 4.629-4.58 9.938-4.58 14.566 0 1.462 1.446 3.368 2.168 5.274 2.168 1.933 0 3.865-.743 5.332-2.226 2.913-2.944 2.888-7.693-.058-10.606-10.496-10.386-25.164-10.386-35.662 0z" data-original="#000000" class="active-path" data-old_color="#000000" fill="#F8F8F8"/></g></g></g> </svg>
