<svg width="212" height="177" viewBox="0 0 212 177" fill="none" xmlns="http://www.w3.org/2000/svg">
<path d="M15.5841 89.4843C15.5841 90.8444 14.4815 91.9469 13.1215 91.9469H11.3678C10.0078 91.9469 8.90527 90.8444 8.90527 89.4843C8.90527 88.1243 10.0078 87.0218 11.3678 87.0218H13.1215C14.4816 87.0218 15.5841 88.1243 15.5841 89.4843ZM15.5841 78.757C15.5841 80.6013 14.089 82.0964 12.2447 82.0964C10.4004 82.0964 8.90527 80.6013 8.90527 78.757V69.0182C8.90527 67.1739 10.4004 65.6788 12.2447 65.6788C14.089 65.6788 15.5841 67.1739 15.5841 69.0182V78.757Z" fill="white"/>
<path d="M202.595 89.4843C202.595 90.8444 201.493 91.9469 200.133 91.9469H198.379C197.019 91.9469 195.917 90.8444 195.917 89.4843C195.917 88.1243 197.019 87.0218 198.379 87.0218H200.133C201.493 87.0218 202.595 88.1243 202.595 89.4843ZM202.595 78.757C202.595 80.6013 201.1 82.0964 199.256 82.0964C197.412 82.0964 195.917 80.6013 195.917 78.757V69.0182C195.917 67.1739 197.412 65.6788 199.256 65.6788C201.1 65.6788 202.595 67.1739 202.595 69.0182V78.757Z" fill="white"/>
<path d="M66.7896 66.4998C66.7896 67.8598 65.6871 68.9623 64.3271 68.9623H62.5734C61.2134 68.9623 60.1108 67.8598 60.1108 66.4998C60.1108 65.1398 61.2134 64.0372 62.5734 64.0372H64.3271C65.6871 64.0372 66.7896 65.1398 66.7896 66.4998ZM66.7896 55.7724C66.7896 57.6167 65.2945 59.1118 63.4502 59.1118C61.6059 59.1118 60.1108 57.6167 60.1108 55.7724V46.0337C60.1108 44.1894 61.6059 42.6943 63.4502 42.6943C65.2945 42.6943 66.7896 44.1894 66.7896 46.0337V55.7724Z" fill="white"/>
<path d="M150.944 66.4998C150.944 67.8598 149.842 68.9623 148.482 68.9623H146.728C145.368 68.9623 144.266 67.8598 144.266 66.4998C144.266 65.1398 145.368 64.0372 146.728 64.0372H148.482C149.842 64.0372 150.944 65.1398 150.944 66.4998ZM150.944 55.7724C150.944 57.6167 149.449 59.1118 147.605 59.1118C145.761 59.1118 144.266 57.6167 144.266 55.7724V46.0337C144.266 44.1894 145.761 42.6943 147.605 42.6943C149.449 42.6943 150.944 44.1894 150.944 46.0337V55.7724Z" fill="white"/>
<path d="M13.0967 21.3065H11.3374C9.98799 21.3065 8.89404 22.4004 8.89404 23.7499C8.89404 25.0993 9.98799 26.1933 11.3374 26.1933H13.0967C14.4461 26.1933 15.5401 25.0993 15.5401 23.7499C15.5401 22.4004 14.4461 21.3065 13.0967 21.3065Z" fill="white"/>
<path d="M35.4782 54.2435H33.5235C32.174 54.2435 31.0801 55.3375 31.0801 56.6869C31.0801 58.0364 32.174 59.1303 33.5235 59.1303H35.4782C36.8277 59.1303 37.9216 58.0364 37.9216 56.6869C37.9216 55.3375 36.8277 54.2435 35.4782 54.2435Z" fill="white"/>
<path d="M209.236 55.5014L206.961 42.1111C206.781 41.0508 205.862 40.2751 204.786 40.2751C203.568 40.2751 202.581 39.2877 202.581 38.0697V32.9589C202.581 31.1116 201.083 29.614 199.236 29.614C197.389 29.614 195.891 31.1116 195.891 32.9589V38.0697C195.891 39.2877 194.904 40.2751 193.686 40.2751C192.61 40.2751 191.692 41.0508 191.512 42.1111L189.236 55.5014L187.163 64.6488C187.036 65.2105 186.972 65.7845 186.972 66.3604V75.4673C186.972 78.2654 183.741 79.8267 181.548 78.0879C180.748 77.4534 180.282 76.4883 180.282 75.4673V65.7621C180.282 63.9147 178.785 62.4172 176.937 62.4172H176.642C174.958 62.4172 173.592 63.7826 173.592 65.4669V68.8385C173.592 70.0267 172.22 70.6897 171.289 69.9514C170.802 69.5649 170.12 69.5404 169.606 69.8909L168.746 70.4776C167.167 71.5545 167.085 73.8531 168.582 75.0406L181.355 85.1708C184.904 87.985 186.972 92.2659 186.972 96.7948V139.048C186.972 144.282 182.729 148.525 177.495 148.525H170.477C169.119 148.525 168.017 149.627 168.017 150.985C168.017 152.344 169.119 153.446 170.477 153.446H186.972H193.662C203.514 153.446 211.501 145.459 211.501 135.607V73.3264C211.501 68.121 210.92 62.9318 209.77 57.8552L209.236 55.5014ZM204.811 148.525C198.653 148.525 193.662 143.533 193.662 137.375V73.7336C193.662 68.5282 194.242 63.339 195.393 58.2623L195.846 56.261L197.477 46.6811C197.623 45.8231 198.366 45.1955 199.237 45.1955C200.107 45.1955 200.851 45.8233 200.996 46.6814L202.608 56.1615L203.085 58.2717C204.233 63.342 204.812 68.5243 204.812 73.7228V148.524C204.812 148.525 204.812 148.525 204.811 148.525Z" fill="white"/>
<path d="M57.5664 0H55.8072C54.4577 0 53.3638 1.09395 53.3638 2.4434C53.3638 3.79286 54.4577 4.8868 55.8072 4.8868H57.5664C58.9159 4.8868 60.0098 3.79286 60.0098 2.4434C60.0098 1.09395 58.9159 0 57.5664 0Z" fill="white"/>
<path d="M73.4744 8.30756H66.8436V18.9675H60.2127V8.30756H53.5818V21.2832L49.1611 49.1631V153.446H77.8955V49.1631L73.4748 21.2832V8.30756H73.4744ZM71.2639 148.526H66.401V75.5468H59.7702V148.526H55.7916V49.4512L59.8448 23.8876H67.2102L71.2639 49.4512V148.526Z" fill="white"/>
<path d="M71.1519 0H69.0018C67.6523 0 66.5583 1.09395 66.5583 2.4434C66.5583 3.79286 67.6523 4.8868 69.0017 4.8868H71.1519C72.5014 4.8868 73.5953 3.79286 73.5953 2.4434C73.5953 1.09395 72.5014 0 71.1519 0Z" fill="white"/>
<path d="M93.3379 13.1944H91.5787C90.2292 13.1944 89.1353 14.2883 89.1353 15.6378C89.1353 16.9872 90.2292 18.0812 91.5787 18.0812H93.3379C94.6874 18.0812 95.7813 16.9872 95.7813 15.6378C95.7813 14.2883 94.6874 13.1944 93.3379 13.1944Z" fill="white"/>
<path d="M119.922 13.1944H118.163C116.813 13.1944 115.719 14.2883 115.719 15.6378C115.719 16.9872 116.813 18.0812 118.163 18.0812H119.922C121.272 18.0812 122.366 16.9872 122.366 15.6378C122.366 14.2883 121.272 13.1944 119.922 13.1944Z" fill="white"/>
<path d="M122.39 21.358H115.717V27.165L109.044 22.0119V16.4197H102.372V22.0119L95.6988 27.165V21.358H89.0262V32.3184L79.3616 39.7821L84.179 43.1993L105.708 26.5731L126.637 42.736L131.455 39.319L122.39 32.3181V21.358Z" fill="white"/>
<path d="M173.384 124.711H171.722C170.319 124.711 169.181 125.849 169.181 127.252C169.181 128.656 170.319 129.793 171.722 129.793H173.384C174.787 129.793 175.925 128.656 175.925 127.252C175.925 125.849 174.787 124.711 173.384 124.711Z" fill="white"/>
<path d="M173.482 95.2927H171.625C170.275 95.2927 169.181 96.3866 169.181 97.7361C169.181 99.0855 170.275 100.179 171.625 100.179H173.482C174.831 100.179 175.925 99.0855 175.925 97.7361C175.925 96.3866 174.831 95.2927 173.482 95.2927Z" fill="white"/>
<path d="M173.482 134.68H171.625C170.275 134.68 169.181 135.774 169.181 137.124C169.181 138.473 170.275 139.567 171.625 139.567H173.482C174.831 139.567 175.925 138.473 175.925 137.124C175.925 135.774 174.831 134.68 173.482 134.68Z" fill="white"/>
<path d="M173.433 105.066H171.673C170.297 105.066 169.181 106.182 169.181 107.559C169.181 108.935 170.297 110.051 171.673 110.051H173.433C174.809 110.051 175.925 108.935 175.925 107.559C175.925 106.182 174.809 105.066 173.433 105.066Z" fill="white"/>
<path d="M173.482 114.938H171.625C170.275 114.938 169.181 116.032 169.181 117.381C169.181 118.73 170.275 119.824 171.625 119.824H173.482C174.831 119.824 175.925 118.73 175.925 117.381C175.925 116.032 174.831 114.938 173.482 114.938Z" fill="white"/>
<path d="M39.8763 114.938H38.0193C36.6699 114.938 35.5759 116.032 35.5759 117.381C35.5759 118.73 36.6699 119.824 38.0193 119.824H39.8763C41.2258 119.824 42.3197 118.73 42.3197 117.381C42.3197 116.032 41.2258 114.938 39.8763 114.938Z" fill="white"/>
<path d="M39.8763 134.68H38.0193C36.6699 134.68 35.5759 135.774 35.5759 137.124C35.5759 138.473 36.6699 139.567 38.0193 139.567H39.8763C41.2258 139.567 42.3197 138.473 42.3197 137.124C42.3197 135.774 41.2258 134.68 39.8763 134.68Z" fill="white"/>
<path d="M39.8274 105.066H38.0682C36.6918 105.066 35.5759 106.182 35.5759 107.559C35.5759 108.935 36.6918 110.051 38.0682 110.051H39.8274C41.2039 110.051 42.3197 108.935 42.3197 107.559C42.3197 106.182 41.2039 105.066 39.8274 105.066Z" fill="white"/>
<path d="M39.8763 95.2927H38.0193C36.6699 95.2927 35.5759 96.3866 35.5759 97.7361C35.5759 99.0855 36.6699 100.179 38.0193 100.179H39.8763C41.2258 100.179 42.3197 99.0855 42.3197 97.7361C42.3197 96.3866 41.2258 95.2927 39.8763 95.2927Z" fill="white"/>
<path d="M39.7786 124.711H38.1171C36.7136 124.711 35.5759 125.849 35.5759 127.252C35.5759 128.656 36.7136 129.793 38.1171 129.793H39.7786C41.182 129.793 42.3197 128.656 42.3197 127.252C42.3197 125.849 41.182 124.711 39.7786 124.711Z" fill="white"/>
<path d="M41.1124 69.7991C40.6883 69.5162 40.1293 69.5428 39.734 69.8646C38.9748 70.4826 37.8385 69.9423 37.8385 68.9634V65.3141C37.8385 63.7142 36.5415 62.4172 34.9416 62.4172H34.4999C32.656 62.4172 31.1613 63.9119 31.1613 65.7558V75.2549C31.1613 76.2592 30.7092 77.2102 29.9302 77.8442C27.7489 79.6197 24.4841 78.0675 24.4841 75.2549V66.34C24.4841 65.7777 24.4215 65.2171 24.2974 64.6686L22.2242 55.5014L19.9523 42.108C19.7727 41.0496 18.8558 40.2751 17.7823 40.2751C16.5667 40.2751 15.5813 39.2897 15.5813 38.0741V32.953C15.5813 31.109 14.0863 29.614 12.2422 29.614C10.3982 29.614 8.90322 31.109 8.90322 32.953V38.0741C8.90322 39.2897 7.9178 40.2751 6.70222 40.2751C5.62868 40.2751 4.71175 41.0496 4.53221 42.108L2.26029 55.5014L1.72489 57.8684C0.578525 62.9363 0 68.1161 0 73.3121V135.639C0 145.473 7.97222 153.446 17.8064 153.446H24.4837H40.4143C41.773 153.446 42.8745 152.344 42.8745 150.985C42.8745 149.627 41.773 148.525 40.4143 148.525H33.6791C28.6006 148.525 24.4837 144.408 24.4837 139.33V99.3886C24.4837 93.2005 27.2695 87.3412 32.0689 83.435L37.7207 78.835C37.7336 78.8245 37.7497 78.8188 37.7663 78.8188H37.7845C37.8143 78.8188 37.8385 78.7946 37.8385 78.7647C37.8385 78.7485 37.8458 78.7331 37.8584 78.7228L42.3614 75.0578C43.8457 73.8497 43.7366 71.5497 42.1445 70.4876L41.1124 69.7991ZM17.8064 87.7121V142.961C17.8064 146.034 15.3151 148.525 12.2418 148.525C9.16858 148.525 6.67721 146.034 6.67721 142.961V73.7193C6.67721 68.5233 7.25574 63.3435 8.40211 58.2755L8.85779 56.261L10.4858 46.6787C10.6313 45.8223 11.3732 45.1958 12.2419 45.1958C13.1106 45.1958 13.8527 45.8225 13.998 46.6791L15.6069 56.1618L16.0868 58.2871C17.2297 63.3476 17.8064 68.5195 17.8064 73.7075V87.7121Z" fill="white"/>
<path d="M142.499 0H140.349C138.999 0 137.906 1.09395 137.906 2.4434C137.906 3.79286 138.999 4.8868 140.349 4.8868H142.499C143.849 4.8868 144.943 3.79286 144.943 2.4434C144.943 1.09395 143.849 0 142.499 0Z" fill="white"/>
<path d="M157.919 8.30756H151.288V18.9675H144.657V8.30756H138.026V21.2832L133.605 49.1631V153.446H162.34V49.1631L157.919 21.2832V8.30756H157.919ZM155.708 148.526H150.845V75.5468H144.214V148.526H140.236V49.4512L144.289 23.8876H151.654L155.708 49.4512V148.526Z" fill="white"/>
<path d="M155.694 0H153.934C152.585 0 151.491 1.09395 151.491 2.4434C151.491 3.79286 152.585 4.8868 153.934 4.8868H155.694C157.043 4.8868 158.137 3.79286 158.137 2.4434C158.137 1.09395 157.043 0 155.694 0Z" fill="white"/>
<path d="M177.977 54.2435H176.023C174.673 54.2435 173.579 55.3375 173.579 56.6869C173.579 58.0364 174.673 59.1303 176.023 59.1303H177.977C179.327 59.1303 180.421 58.0364 180.421 56.6869C180.421 55.3375 179.327 54.2435 177.977 54.2435Z" fill="white"/>
<path d="M130.714 95.8317C130.714 101.002 129.526 105.903 127.352 109.77C127.075 118.528 122.94 125.78 117.316 127.207C117.211 127.232 117.107 127.247 117.002 127.247H112.89C112.356 132.865 112.116 141.115 113.839 149.278C113.93 149.63 113.98 150.014 113.98 150.417C113.98 152.091 113.107 153.446 112.029 153.446C112.029 153.446 112.027 153.446 112.025 153.446H98.6357C98.0085 153.446 97.42 152.977 97.0521 152.187C96.6862 151.4 96.5875 150.384 96.785 149.459C98.5564 141.208 98.3163 132.895 97.7781 127.247H93.6603C93.5558 127.247 93.4493 127.232 93.3467 127.207C87.7228 125.783 83.5876 118.528 83.3107 109.77C81.1367 105.903 79.948 101.002 79.948 95.8317C79.948 84.1293 86.0792 74.6111 93.6139 74.6111C93.9256 74.6111 94.2392 74.6261 94.5528 74.6622C96.541 68.3227 100.692 64.2126 105.33 64.2126C109.971 64.2126 114.121 68.3227 116.11 74.6622C116.421 74.6261 116.735 74.6111 117.047 74.6111C124.583 74.6111 130.714 84.1293 130.714 95.8317ZM124.018 106.447C125.818 103.595 126.812 99.8247 126.812 95.8317C126.812 87.4703 122.431 80.6681 117.047 80.6681C116.445 80.6681 115.833 80.7552 115.229 80.9325C114.267 81.2119 113.322 80.3436 113.016 78.9015C111.92 73.7398 108.832 70.2696 105.33 70.2696C101.83 70.2696 98.7422 73.7398 97.6465 78.9015C97.3406 80.3436 96.3939 81.2119 95.4317 80.9325C94.8277 80.7552 94.216 80.6681 93.6139 80.6681C88.23 80.6681 83.8509 87.4703 83.8509 95.8317C83.8509 99.8247 84.8421 103.595 86.6445 106.447C87.0084 107.023 87.2078 107.802 87.202 108.61C87.202 108.67 87.2001 108.727 87.1981 108.787V108.838C87.1981 114.94 89.9762 120.102 93.8268 121.19H96.9747C96.8643 120.559 96.7888 120.204 96.785 120.183C96.5875 119.261 96.6862 118.245 97.0521 117.455C97.42 116.665 98.0085 116.196 98.6357 116.196H112.025C112.652 116.196 113.242 116.665 113.608 117.455C113.976 118.245 114.075 119.261 113.877 120.183C113.872 120.204 113.798 120.559 113.688 121.19H116.836C120.686 120.102 123.464 114.94 123.464 108.829L123.462 108.787C123.462 108.727 123.46 108.67 123.46 108.61C123.453 107.802 123.654 107.023 124.018 106.447ZM109.498 122.253H101.164C101.9 127.466 102.771 137.119 101.214 147.389H109.448C107.892 137.119 108.763 127.466 109.498 122.253Z" fill="white"/>
<path d="M126.812 95.8317C126.812 99.8247 125.818 103.595 124.018 106.447C123.654 107.023 123.453 107.802 123.46 108.61C123.46 108.67 123.462 108.727 123.462 108.787L123.464 108.829C123.464 114.94 120.686 120.102 116.836 121.19H113.688C113.798 120.559 113.872 120.204 113.877 120.183C114.075 119.261 113.976 118.245 113.608 117.455C113.242 116.665 112.652 116.196 112.025 116.196H98.6357C98.0084 116.196 97.4199 116.665 97.0521 117.455C96.6862 118.245 96.5875 119.261 96.7849 120.183C96.7888 120.204 96.8643 120.559 96.9746 121.19H93.8268C89.9762 120.102 87.1981 114.94 87.1981 108.838V108.787C87.2 108.727 87.202 108.67 87.202 108.61C87.2078 107.802 87.0084 107.023 86.6444 106.447C84.842 103.595 83.8508 99.8247 83.8508 95.8317C83.8508 87.4702 88.23 80.6681 93.6138 80.6681C94.2159 80.6681 94.8277 80.7552 95.4317 80.9325C96.3939 81.2119 97.3405 80.3436 97.6464 78.9015C98.7422 73.7398 101.83 70.2696 105.33 70.2696C108.832 70.2696 111.92 73.7398 113.016 78.9015C113.322 80.3436 114.267 81.2119 115.229 80.9325C115.833 80.7552 116.445 80.6681 117.047 80.6681C122.43 80.6681 126.812 87.4702 126.812 95.8317Z" fill="#02675A"/>
<path d="M101.164 122.253H109.498C108.763 127.466 107.891 137.119 109.448 147.389H101.214C102.771 137.119 101.9 127.466 101.164 122.253Z" fill="#745A46"/>
<path d="M132.249 166.087C132.705 166.087 133.072 166.217 133.349 166.479C133.627 166.721 133.766 167.048 133.766 167.458V173.474C133.766 174.332 133.647 174.939 133.409 175.293C133.171 175.647 132.685 175.937 131.951 176.161C131.158 176.422 130.236 176.627 129.185 176.776C128.134 176.925 127.123 177 126.151 177C123.99 177 122.116 176.599 120.53 175.797C118.943 174.995 117.724 173.838 116.871 172.327C116.038 170.797 115.622 168.978 115.622 166.87C115.622 164.8 116.038 163.009 116.871 161.498C117.724 159.968 118.923 158.802 120.47 158C122.017 157.179 123.841 156.769 125.943 156.769C128.739 156.769 131.029 157.478 132.814 158.895C133.052 159.1 133.221 159.306 133.32 159.511C133.439 159.716 133.498 159.959 133.498 160.238C133.498 160.649 133.379 160.994 133.141 161.274C132.903 161.554 132.616 161.694 132.279 161.694C132.061 161.694 131.862 161.666 131.684 161.61C131.505 161.535 131.297 161.423 131.059 161.274C130.187 160.695 129.374 160.294 128.62 160.071C127.867 159.828 127.014 159.707 126.062 159.707C123.901 159.707 122.265 160.313 121.154 161.526C120.064 162.72 119.518 164.501 119.518 166.87C119.518 171.721 121.779 174.146 126.3 174.146C127.648 174.146 128.997 173.969 130.345 173.614V168.661H126.984C126.508 168.661 126.131 168.549 125.854 168.325C125.596 168.102 125.467 167.784 125.467 167.374C125.467 166.964 125.596 166.646 125.854 166.423C126.131 166.199 126.508 166.087 126.984 166.087H132.249Z" fill="white"/>
<path d="M154.866 174.482C155.104 174.817 155.223 175.144 155.223 175.461C155.223 175.89 155.035 176.244 154.658 176.524C154.301 176.804 153.875 176.944 153.379 176.944C153.062 176.944 152.755 176.879 152.457 176.748C152.179 176.599 151.942 176.384 151.743 176.105L147.787 170.452C147.391 169.855 146.964 169.435 146.508 169.193C146.072 168.95 145.497 168.829 144.783 168.829H141.868V175.097C141.868 175.657 141.7 176.105 141.362 176.44C141.025 176.757 140.569 176.916 139.994 176.916C139.419 176.916 138.953 176.757 138.596 176.44C138.259 176.105 138.091 175.657 138.091 175.097V158.727C138.091 158.186 138.249 157.767 138.567 157.468C138.904 157.17 139.36 157.02 139.935 157.02H147.371C149.75 157.02 151.555 157.524 152.784 158.532C154.034 159.52 154.658 160.957 154.658 162.841C154.658 164.371 154.192 165.63 153.26 166.618C152.348 167.589 151.049 168.213 149.364 168.493C149.939 168.624 150.444 168.857 150.881 169.193C151.317 169.529 151.743 169.995 152.16 170.592L154.866 174.482ZM146.835 166.059C148.283 166.059 149.344 165.807 150.018 165.303C150.692 164.781 151.029 163.988 151.029 162.925C151.029 161.843 150.692 161.059 150.018 160.574C149.344 160.071 148.283 159.819 146.835 159.819H141.838V166.059H146.835Z" fill="white"/>
<path d="M160.616 176.748C160.041 176.748 159.585 176.599 159.248 176.3C158.931 176.002 158.772 175.582 158.772 175.041V158.727C158.772 158.186 158.931 157.767 159.248 157.468C159.585 157.17 160.041 157.02 160.616 157.02H171.354C171.929 157.02 172.375 157.142 172.693 157.384C173.01 157.627 173.168 157.972 173.168 158.42C173.168 158.886 173.01 159.25 172.693 159.511C172.375 159.753 171.929 159.875 171.354 159.875H162.52V165.303H170.759C171.334 165.303 171.78 165.425 172.098 165.667C172.415 165.91 172.574 166.264 172.574 166.73C172.574 167.178 172.415 167.523 172.098 167.766C171.78 168.008 171.334 168.13 170.759 168.13H162.52V173.894H171.354C171.929 173.894 172.375 174.025 172.693 174.286C173.01 174.528 173.168 174.883 173.168 175.349C173.168 175.797 173.01 176.142 172.693 176.384C172.375 176.627 171.929 176.748 171.354 176.748H160.616Z" fill="white"/>
<path d="M178.132 176.748C177.557 176.748 177.101 176.599 176.764 176.3C176.446 176.002 176.288 175.582 176.288 175.041V158.727C176.288 158.186 176.446 157.767 176.764 157.468C177.101 157.17 177.557 157.02 178.132 157.02H188.869C189.445 157.02 189.891 157.142 190.208 157.384C190.525 157.627 190.684 157.972 190.684 158.42C190.684 158.886 190.525 159.25 190.208 159.511C189.891 159.753 189.445 159.875 188.869 159.875H180.035V165.303H188.275C188.85 165.303 189.296 165.425 189.613 165.667C189.93 165.91 190.089 166.264 190.089 166.73C190.089 167.178 189.93 167.523 189.613 167.766C189.296 168.008 188.85 168.13 188.275 168.13H180.035V173.894H188.869C189.445 173.894 189.891 174.025 190.208 174.286C190.525 174.528 190.684 174.883 190.684 175.349C190.684 175.797 190.525 176.142 190.208 176.384C189.891 176.627 189.445 176.748 188.869 176.748H178.132Z" fill="white"/>
<path d="M209.687 156.881C210.242 156.881 210.678 157.048 210.995 157.384C211.332 157.701 211.501 158.13 211.501 158.671V175.097C211.501 175.638 211.332 176.077 210.995 176.412C210.658 176.748 210.222 176.916 209.687 176.916C209.052 176.916 208.566 176.701 208.229 176.272L197.372 162.981V175.097C197.372 175.638 197.214 176.077 196.896 176.412C196.579 176.748 196.143 176.916 195.588 176.916C195.032 176.916 194.596 176.748 194.279 176.412C193.962 176.077 193.803 175.638 193.803 175.097V158.671C193.803 158.13 193.972 157.701 194.309 157.384C194.646 157.048 195.092 156.881 195.647 156.881C196.262 156.881 196.738 157.095 197.075 157.524L207.902 170.76V158.671C207.902 158.13 208.06 157.701 208.378 157.384C208.715 157.048 209.151 156.881 209.687 156.881Z" fill="white"/>
<path d="M18.5501 156.881C19.1051 156.881 19.551 157.048 19.8879 157.384C20.2248 157.701 20.3933 158.13 20.3933 158.671V175.237C20.3933 175.759 20.2347 176.17 19.9176 176.468C19.6005 176.767 19.1843 176.916 18.6691 176.916C18.1538 176.916 17.7475 176.767 17.4502 176.468C17.1529 176.17 17.0043 175.759 17.0043 175.237V163.708L11.9506 172.719C11.7128 173.129 11.4551 173.437 11.1777 173.642C10.9002 173.829 10.5732 173.922 10.1966 173.922C9.82008 173.922 9.49308 173.829 9.21562 173.642C8.93816 173.456 8.68052 173.148 8.44269 172.719L3.35924 163.848V175.237C3.35924 175.741 3.20069 176.151 2.8836 176.468C2.58632 176.767 2.18004 176.916 1.66476 176.916C1.14947 176.916 0.743195 176.767 0.445917 176.468C0.148639 176.17 0 175.759 0 175.237V158.671C0 158.13 0.158548 157.701 0.475645 157.384C0.81256 157.048 1.25848 156.881 1.8134 156.881C2.58632 156.881 3.19078 157.282 3.62679 158.084L10.2264 169.92L16.7962 158.084C17.2322 157.282 17.8169 156.881 18.5501 156.881Z" fill="white"/>
<path d="M26.8389 176.916C26.2641 176.916 25.7984 176.748 25.4416 176.412C25.1047 176.077 24.9363 175.638 24.9363 175.097V158.671C24.9363 158.13 25.1047 157.701 25.4416 157.384C25.7984 157.048 26.2641 156.881 26.8389 156.881C27.4334 156.881 27.8991 157.048 28.2361 157.384C28.5928 157.701 28.7712 158.13 28.7712 158.671V175.097C28.7712 175.638 28.5928 176.077 28.2361 176.412C27.8991 176.748 27.4334 176.916 26.8389 176.916Z" fill="white"/>
<path d="M35.1106 176.748C34.5359 176.748 34.09 176.599 33.7729 176.3C33.4558 176.002 33.2972 175.592 33.2972 175.069V158.671C33.2972 158.13 33.4657 157.701 33.8026 157.384C34.1593 157.048 34.6251 156.881 35.1998 156.881C35.7944 156.881 36.2601 157.048 36.597 157.384C36.9537 157.701 37.1321 158.13 37.1321 158.671V173.782H45.4856C46.6747 173.782 47.2693 174.276 47.2693 175.265C47.2693 176.254 46.6747 176.748 45.4856 176.748H35.1106Z" fill="white"/>
<path d="M68.6087 174.593C68.7276 174.836 68.7871 175.079 68.7871 175.321C68.7871 175.75 68.5988 176.114 68.2223 176.412C67.8655 176.711 67.4493 176.86 66.9737 176.86C66.6566 176.86 66.3593 176.785 66.0819 176.636C65.8044 176.468 65.5864 176.216 65.4279 175.881L63.6442 172.131H53.18L51.3963 175.881C51.2378 176.216 51.0198 176.468 50.7423 176.636C50.4649 176.785 50.1577 176.86 49.8208 176.86C49.3649 176.86 48.9487 176.711 48.5722 176.412C48.1956 176.114 48.0074 175.75 48.0074 175.321C48.0074 175.079 48.0668 174.836 48.1857 174.593L56.3906 158C56.569 157.627 56.8365 157.347 57.1933 157.16C57.5698 156.955 57.9662 156.853 58.3824 156.853C58.7986 156.853 59.185 156.955 59.5418 157.16C59.9183 157.347 60.1958 157.627 60.3741 158L68.6087 174.593ZM62.3362 169.333L58.4121 161.022L54.488 169.333H62.3362Z" fill="white"/>
<path d="M87.5509 156.881C88.1058 156.881 88.5418 157.048 88.8589 157.384C89.1958 157.701 89.3643 158.13 89.3643 158.671V175.097C89.3643 175.638 89.1958 176.077 88.8589 176.412C88.522 176.748 88.086 176.916 87.5509 176.916C86.9167 176.916 86.4312 176.701 86.0942 176.272L75.2436 162.981V175.097C75.2436 175.638 75.0851 176.077 74.768 176.412C74.4509 176.748 74.0149 176.916 73.4599 176.916C72.905 176.916 72.469 176.748 72.1519 176.412C71.8348 176.077 71.6763 175.638 71.6763 175.097V158.671C71.6763 158.13 71.8447 157.701 72.1816 157.384C72.5185 157.048 72.9645 156.881 73.5194 156.881C74.1338 156.881 74.6094 157.095 74.9463 157.524L85.7672 170.76V158.671C85.7672 158.13 85.9258 157.701 86.2429 157.384C86.5798 157.048 87.0158 156.881 87.5509 156.881Z" fill="white"/>
<path d="M103.22 177C101.178 177 99.4045 176.59 97.8983 175.769C96.4119 174.948 95.2624 173.773 94.4498 172.243C93.6373 170.713 93.231 168.922 93.231 166.87C93.231 164.818 93.6274 163.037 94.4201 161.526C95.2327 159.996 96.3921 158.821 97.8983 158C99.4045 157.179 101.178 156.769 103.22 156.769C105.261 156.769 107.025 157.179 108.511 158C110.017 158.821 111.167 159.996 111.96 161.526C112.772 163.037 113.178 164.818 113.178 166.87C113.178 168.922 112.772 170.713 111.96 172.243C111.147 173.773 109.988 174.948 108.481 175.769C106.995 176.59 105.241 177 103.22 177ZM103.22 174.118C105.142 174.118 106.638 173.493 107.708 172.243C108.798 170.993 109.343 169.202 109.343 166.87C109.343 164.538 108.798 162.757 107.708 161.526C106.638 160.276 105.142 159.651 103.22 159.651C101.277 159.651 99.7612 160.276 98.6712 161.526C97.601 162.757 97.0659 164.538 97.0659 166.87C97.0659 169.202 97.601 170.993 98.6712 172.243C99.7612 173.493 101.277 174.118 103.22 174.118Z" fill="white"/>
</svg>
