<svg width="100" height="100" viewBox="0 0 100 100" fill="none" xmlns="http://www.w3.org/2000/svg">
<path d="M94.48 1.13115e-07H5.51514C2.46887 0.00183118 -0.000610238 2.47253 1.13115e-07 5.52002V94.4849C0.00183118 97.5311 2.47253 100.001 5.52002 100H53.418V61.3281H40.4297V46.1914H53.418V35.0519C53.418 22.1338 61.3043 15.1025 72.8278 15.1025C78.3472 15.1025 83.0902 15.5139 84.4727 15.6976V29.1992H76.5265C70.257 29.1992 69.043 32.1783 69.043 36.5509V46.1914H84.0332L82.0801 61.3281H69.043V100H94.48C97.5281 100.001 99.9994 97.5305 100 94.4824V94.48V5.51514C99.9988 2.46887 97.5275 -0.000610238 94.48 1.13115e-07Z" fill="#F8F8F8"/>
</svg>
