<svg width="100" height="100" viewBox="0 0 100 100" fill="none" xmlns="http://www.w3.org/2000/svg">
<path d="M85.3516 0H14.6484C6.57196 0 0 6.57196 0 14.6484V85.3516C0 93.428 6.57196 100 14.6484 100H85.3516C93.428 100 100 93.428 100 85.3516V14.6484C100 6.57196 93.428 0 85.3516 0ZM50.1953 76.1719C35.656 76.1719 23.8281 64.344 23.8281 49.8047C23.8281 35.2654 35.656 23.4375 50.1953 23.4375C64.7346 23.4375 76.5625 35.2654 76.5625 49.8047C76.5625 64.344 64.7346 76.1719 50.1953 76.1719ZM79.4922 29.2969C74.646 29.2969 70.7031 25.354 70.7031 20.5078C70.7031 15.6616 74.646 11.7188 79.4922 11.7188C84.3384 11.7188 88.2812 15.6616 88.2812 20.5078C88.2812 25.354 84.3384 29.2969 79.4922 29.2969Z" fill="#F8F8F8"/>
<path d="M79.4922 17.5781C77.8755 17.5781 76.5625 18.8911 76.5625 20.5078C76.5625 22.1245 77.8755 23.4375 79.4922 23.4375C81.1089 23.4375 82.4219 22.1245 82.4219 20.5078C82.4219 18.8911 81.1089 17.5781 79.4922 17.5781Z" fill="#F8F8F8"/>
<path d="M50.1953 29.2969C38.8885 29.2969 29.6875 38.4979 29.6875 49.8047C29.6875 61.1115 38.8885 70.3125 50.1953 70.3125C61.5021 70.3125 70.7031 61.1115 70.7031 49.8047C70.7031 38.4979 61.5021 29.2969 50.1953 29.2969Z" fill="#F8F8F8"/>
</svg>
