<svg width="123" height="100" viewBox="0 0 123 100" fill="none" xmlns="http://www.w3.org/2000/svg">
<path d="M45.5829 100C40.2993 100 34.8609 99.5721 29.3899 98.7145C19.7539 97.2025 9.99955 92.1622 7.23935 90.653L0 86.6949L7.83781 84.1174C16.4055 81.3004 21.6174 79.5525 28.069 76.8156C21.609 73.6872 16.6302 68.0596 14.2335 60.7848L12.4102 55.2495L13.9054 55.4779C12.4875 54.0489 11.368 52.5984 10.5001 51.2794C7.41367 46.5914 5.77955 40.8631 6.12725 35.9542L6.4703 31.1227L9.36287 32.2432C8.14264 29.9388 7.26079 27.4779 6.74249 24.8985C5.47938 18.6081 6.53648 11.9253 9.71989 6.08144L12.2396 1.45593L15.6094 5.50348C26.2671 18.3061 39.7661 25.9006 55.7875 28.1239C55.1331 23.613 55.6235 19.2597 57.2464 15.3576C59.136 10.8141 62.4974 6.96142 66.9644 4.2152C71.9255 1.16603 77.9418 -0.311488 83.905 0.054861C90.2318 0.443582 95.9759 2.81413 100.538 6.91481C102.766 6.33592 104.408 5.71788 106.626 4.88265C107.961 4.3802 109.475 3.8097 111.369 3.15717L118.349 0.752135L113.797 13.7524C114.098 13.7272 114.407 13.7058 114.731 13.6918L122.184 13.3543L117.779 19.3753C117.526 19.7202 117.462 19.8181 117.372 19.9533C117.017 20.4884 116.575 21.1539 110.528 29.2285C109.014 31.2504 108.258 33.8839 108.399 36.645C108.935 47.1377 107.648 56.631 104.571 64.8604C101.66 72.646 97.1505 79.326 91.1677 84.715C83.7643 91.382 74.324 95.9469 63.108 98.2811C57.6062 99.4258 51.698 100 45.5829 100Z" fill="#F8F8F8"/>
</svg>
