<svg width="58" height="58" viewBox="0 0 58 58" fill="none" xmlns="http://www.w3.org/2000/svg">
<path d="M52.8214 50.5181V0L51.2411 0.161605C44.9029 0.800621 38.6861 2.64859 32.8177 5.63889L30.0357 7.04769V57.3659L32.0616 56.3389C38.1343 53.2573 44.564 51.3508 51.1187 50.6871L52.8214 50.5181Z" fill="#F8F8F8"/>
<path d="M58 7.46835H54.8929V51.6814C54.8949 52.3401 54.4807 52.8903 53.9421 52.9446L51.2896 53.2098C50.5239 53.2869 49.7603 53.3825 48.9997 53.4967C48.7529 53.5331 48.5076 53.5812 48.2624 53.6231C47.7496 53.7064 47.2378 53.7909 46.7275 53.8896C46.4301 53.9475 46.1348 54.0154 45.8384 54.0789C45.3818 54.1764 44.9241 54.2732 44.4685 54.383C44.1574 54.4589 43.8469 54.544 43.5298 54.626C43.0959 54.7383 42.662 54.853 42.2311 54.9782C41.908 55.072 41.5858 55.1713 41.2647 55.2712C40.8455 55.3977 40.4283 55.534 40.0115 55.6759C39.6874 55.7844 39.3632 55.8991 39.0401 56.0151C38.6259 56.1644 38.2178 56.3161 37.8086 56.4752C37.4885 56.6017 37.1679 56.7281 36.8488 56.854C36.4391 57.0224 36.0315 57.1963 35.6254 57.3758C35.3149 57.5133 35.0039 57.6515 34.6863 57.7965C34.5442 57.8624 34.4031 57.9328 34.2615 58H58V7.46835Z" fill="#F8F8F8"/>
<path d="M6.75895 0.161605L5.17857 0V50.5218L7.01686 50.7124C13.5675 51.3804 19.9916 53.2987 26.0542 56.3969L27.9643 57.3659V7.04769L25.1854 5.64012C19.3165 2.6492 13.0986 0.800621 6.75895 0.161605Z" fill="#F8F8F8"/>
<path d="M0 7.46835V57.9975H23.7552C23.6277 57.9365 23.5003 57.8711 23.3718 57.8131C23.0755 57.6756 22.7766 57.5442 22.4782 57.4116C22.0575 57.2253 21.6372 57.0439 21.2134 56.8706C20.907 56.7442 20.5995 56.6214 20.2915 56.5018C19.8713 56.3334 19.4495 56.1749 19.0272 56.0268C18.7162 55.9158 18.4057 55.8041 18.0952 55.6981C17.6693 55.5543 17.2425 55.418 16.8147 55.2842C16.5042 55.1867 16.1931 55.0893 15.8756 54.9986C15.4417 54.8721 15.0052 54.7562 14.5693 54.6421C14.2588 54.56 13.9478 54.4768 13.6372 54.4009C13.1856 54.2923 12.732 54.1949 12.2784 54.098C11.981 54.0345 11.6836 53.9716 11.3858 53.9068C10.8851 53.81 10.3829 53.728 9.88075 53.6453C9.62688 53.604 9.37503 53.5546 9.12167 53.5195C8.36208 53.4072 7.60249 53.3116 6.8429 53.2327L4.05486 52.9446C3.51728 52.8885 3.10512 52.3389 3.10714 51.6814V7.46835H0Z" fill="#F8F8F8"/>
</svg>
