<svg width="58" height="58" viewBox="0 0 58 58" fill="none" xmlns="http://www.w3.org/2000/svg">
<path d="M35.6366 7.04934C37.3239 6.16992 39.237 5.68135 41.1264 5.68135C42.2196 5.68135 43.2653 5.8349 44.2516 6.12804C44.6437 6.23971 45.024 5.84886 44.9646 5.37425L44.822 4.03418C44.7031 1.80072 42.5286 0 39.9262 0C37.2526 0 34.6978 1.88448 34.6978 4.21564L34.8166 6.4491C34.8523 6.93767 35.2682 7.24477 35.6366 7.04934Z" fill="#F8F8F8"/>
<path d="M57.9049 45.4508L57.8455 45.046C57.8455 45.018 57.8336 44.9901 57.8336 44.9622L55.6353 31.8407C55.3501 28.8116 53.4727 26.1733 50.7396 24.5401L49.6939 15.006C49.6939 10.9579 45.7964 7.64958 41.1264 7.64958C36.4565 7.64958 32.0123 10.93 32.0123 14.9921C32.0123 15.1875 32.0242 15.3969 32.0479 15.5923L32.1074 16.6253C31.1805 16.2344 30.1229 16.0111 29.0059 16.0111C27.8771 16.0111 26.8195 16.2344 25.8808 16.6392L25.9402 15.5923C25.9639 15.3969 25.9758 15.2014 25.9758 14.9921C25.9758 10.9439 21.5198 7.64958 16.8617 7.64958C12.1918 7.64958 8.2942 10.9579 8.2942 15.006L7.24851 24.5401C4.51547 26.1593 2.63798 28.8116 2.3528 31.8407L0.154477 44.9622C0.154477 44.9901 0.142594 45.018 0.142594 45.046L0.0831797 45.4508C0.0356484 45.8696 0 46.2883 0 46.7211C0 52.9468 5.54927 58 12.3819 58C19.2145 58 24.7638 52.9468 24.7638 46.7211V41.5562C25.9877 42.2262 27.4493 42.6031 29.0059 42.6031C30.5626 42.6031 32.0123 42.2262 33.2362 41.5702V46.7211C33.2362 52.9468 38.7855 58 45.6181 58C52.4388 58 58 52.9468 58 46.7211C57.9881 46.2883 57.9525 45.8696 57.9049 45.4508ZM12.3819 53.9379C7.54558 53.9379 3.4579 50.6296 3.4579 46.7211C3.4579 42.7986 7.54558 39.5042 12.3819 39.5042C17.2182 39.5042 21.3059 42.8125 21.3059 46.7211C21.3059 50.6296 17.2182 53.9379 12.3819 53.9379ZM29.0059 39.0296C26.974 39.0296 25.3223 37.6756 25.3223 36.0144C25.3223 34.3533 26.974 32.9993 29.0059 32.9993C31.0379 32.9993 32.6896 34.3533 32.6896 36.0144C32.6896 37.6756 31.0379 39.0296 29.0059 39.0296ZM45.6062 53.9379C40.7699 53.9379 36.6822 50.6296 36.6822 46.7211C36.6822 42.7986 40.7699 39.5042 45.6062 39.5042C50.4425 39.5042 54.5302 42.8125 54.5302 46.7211C54.5302 50.6296 50.4425 53.9379 45.6062 53.9379Z" fill="#F8F8F8"/>
<path d="M13.7246 6.12804C14.7109 5.8349 15.7685 5.68135 16.8498 5.68135C18.7392 5.68135 20.6642 6.16992 22.3397 7.04934C22.7081 7.24477 23.124 6.93767 23.1477 6.46306L23.2665 4.2296C23.2665 1.89844 20.7117 0.0139594 18.0381 0.0139594C15.4358 0.0139594 13.2731 1.81468 13.1424 4.04814L12.9998 5.38821C12.9523 5.84886 13.3206 6.25367 13.7246 6.12804Z" fill="#F8F8F8"/>
</svg>
