<svg width="58" height="58" viewBox="0 0 58 58" fill="none" xmlns="http://www.w3.org/2000/svg">
<path d="M13.3005 15.1428C12.5131 14.5095 12.4602 13.4344 13.1807 12.7422C13.9024 12.05 15.1255 12.0035 15.913 12.6379C19.8414 15.8022 22.8625 18.8441 25.1141 21.9279C27.2742 8.41894 17.5847 0.969978 2.1765 0.0137926C0.872189 -0.131221 -0.216886 0.889541 0.0370164 2.02699C1.98189 10.7199 4.05564 15.8815 6.76093 18.7614C10.9523 23.2251 15.7867 21.8123 21.758 23.6103C19.8131 20.991 17.1013 18.2051 13.3005 15.1428Z" fill="white"/>
<path d="M32.8859 21.9279C31.2493 24.1676 29.9115 26.5843 29 29.1786C28.0884 26.5839 26.7504 24.1672 25.1141 21.9279C24.8744 23.4653 24.1475 24.3308 21.758 23.6103C25.5252 28.6835 26.4171 33.1359 26.7793 37.7707C28.2943 37.5457 29.8073 37.5608 31.2207 37.7707C31.5828 33.1359 32.4747 28.6835 36.242 23.6103C34.7663 24.0555 33.2506 24.2742 32.8859 21.9279Z" fill="white"/>
<path d="M55.8235 0.0137926C53.0099 0.188263 50.565 0.502082 47.812 1.22489C36.8632 4.09684 31.1717 11.2139 32.8859 21.9279C35.1375 18.8441 38.1585 15.8022 42.0869 12.6379C42.8744 12.0035 44.0975 12.05 44.8193 12.7422C45.5398 13.4344 45.4869 14.5095 44.6994 15.1428C40.8986 18.2051 38.1869 20.991 36.242 23.6103C42.2119 21.8135 47.0477 23.2251 51.239 18.7614C53.9443 15.8815 56.0181 10.7199 57.9629 2.02699C58.2169 0.890674 57.1291 -0.131221 55.8235 0.0137926Z" fill="white"/>
<path d="M45.3798 47.8669C43.6838 45.2244 40.1846 43.8738 36.8732 44.599C35.0813 42.3769 32.1515 41.0062 29 41.0062C25.8485 41.0062 22.9187 42.3769 21.1268 44.599C17.8181 43.8744 14.3176 45.2223 12.6202 47.8669C9.85455 48.2531 7.73401 50.364 7.73401 52.9019C7.73401 55.713 10.3358 58 13.5338 58H44.4661C47.6642 58 50.266 55.713 50.266 52.9019C50.266 50.364 48.1454 48.2533 45.3798 47.8669Z" fill="white"/>
</svg>
