<svg width="214" height="88" viewBox="0 0 214 88" fill="none" xmlns="http://www.w3.org/2000/svg">
<rect width="214" height="88" rx="44" fill="#02675A"/>
<path d="M28.9027 41.4049C27.718 42.5632 27.6966 44.4626 28.8549 45.6472L47.7308 64.9528C48.8891 66.1374 50.7885 66.1588 51.9732 65.0005C53.1578 63.8422 53.1792 61.9428 52.0209 60.7581L35.2424 43.5977L52.4028 26.8191C53.5875 25.6608 53.6089 23.7615 52.4506 22.5768C51.2922 21.3921 49.3929 21.3707 48.2082 22.529L28.9027 41.4049ZM71.0283 41.0002L31.0338 40.5501L30.9662 46.5497L70.9607 46.9998L71.0283 41.0002Z" fill="#F8F8F8"/>
<path d="M98.7945 57.36C96.7412 57.36 94.7945 57.0933 92.9545 56.56C91.1412 56 89.6612 55.2533 88.5145 54.32C87.9012 53.8667 87.5945 53.2267 87.5945 52.4C87.5945 51.84 87.7545 51.36 88.0745 50.96C88.4212 50.5333 88.8212 50.32 89.2745 50.32C89.7545 50.32 90.3012 50.5067 90.9145 50.88C92.0612 51.7067 93.2612 52.3067 94.5145 52.68C95.7678 53.0533 97.1545 53.24 98.6745 53.24C100.621 53.24 102.115 52.9067 103.155 52.24C104.195 51.5467 104.715 50.5467 104.715 49.24C104.715 48.2267 104.221 47.4533 103.235 46.92C102.275 46.36 100.661 45.8267 98.3945 45.32C96.0478 44.8133 94.1412 44.2267 92.6745 43.56C91.2078 42.8933 90.1012 42.04 89.3545 41C88.6078 39.96 88.2345 38.64 88.2345 37.04C88.2345 35.3867 88.7012 33.9067 89.6345 32.6C90.5678 31.2933 91.8612 30.28 93.5145 29.56C95.1945 28.8133 97.0745 28.44 99.1545 28.44C102.968 28.44 106.075 29.4533 108.475 31.48C108.821 31.7733 109.061 32.0667 109.195 32.36C109.355 32.6267 109.435 32.9733 109.435 33.4C109.435 33.96 109.261 34.4533 108.915 34.88C108.595 35.28 108.208 35.48 107.755 35.48C107.488 35.48 107.235 35.44 106.995 35.36C106.781 35.28 106.488 35.1333 106.115 34.92C105.021 34.12 103.955 33.5333 102.915 33.16C101.901 32.76 100.648 32.56 99.1545 32.56C97.3412 32.56 95.9012 32.9333 94.8345 33.68C93.7945 34.4 93.2745 35.4133 93.2745 36.72C93.2745 37.8133 93.7412 38.6533 94.6745 39.24C95.6078 39.8267 97.1945 40.3733 99.4345 40.88C101.808 41.4133 103.728 42.0133 105.195 42.68C106.688 43.32 107.821 44.1467 108.595 45.16C109.395 46.1733 109.795 47.44 109.795 48.96C109.795 50.6133 109.328 52.08 108.395 53.36C107.488 54.6133 106.195 55.6 104.515 56.32C102.861 57.0133 100.955 57.36 98.7945 57.36ZM123.989 53.52C125.322 53.6 125.989 54.2 125.989 55.32C125.989 55.96 125.722 56.4533 125.189 56.8C124.682 57.12 123.949 57.2533 122.989 57.2L121.909 57.12C117.429 56.8 115.189 54.4 115.189 49.92V41.2H113.189C112.469 41.2 111.909 41.04 111.509 40.72C111.136 40.4 110.949 39.9333 110.949 39.32C110.949 38.7067 111.136 38.24 111.509 37.92C111.909 37.6 112.469 37.44 113.189 37.44H115.189V33.76C115.189 33.04 115.416 32.4667 115.869 32.04C116.322 31.6133 116.936 31.4 117.709 31.4C118.456 31.4 119.056 31.6133 119.509 32.04C119.962 32.4667 120.189 33.04 120.189 33.76V37.44H123.589C124.309 37.44 124.856 37.6 125.229 37.92C125.629 38.24 125.829 38.7067 125.829 39.32C125.829 39.9333 125.629 40.4 125.229 40.72C124.856 41.04 124.309 41.2 123.589 41.2H120.189V50.28C120.189 52.2533 121.096 53.3067 122.909 53.44L123.989 53.52ZM137.075 36.96C139.795 36.96 141.808 37.64 143.115 39C144.448 40.3333 145.115 42.3733 145.115 45.12V54.88C145.115 55.6 144.901 56.1733 144.475 56.6C144.048 57 143.461 57.2 142.715 57.2C142.021 57.2 141.448 56.9867 140.995 56.56C140.568 56.1333 140.355 55.5733 140.355 54.88V54C139.901 55.04 139.181 55.8533 138.195 56.44C137.235 57.0267 136.115 57.32 134.835 57.32C133.528 57.32 132.341 57.0533 131.275 56.52C130.208 55.9867 129.368 55.2533 128.755 54.32C128.141 53.3867 127.835 52.3467 127.835 51.2C127.835 49.76 128.195 48.6267 128.915 47.8C129.661 46.9733 130.861 46.3733 132.515 46C134.168 45.6267 136.448 45.44 139.355 45.44H140.355V44.52C140.355 43.2133 140.075 42.2667 139.515 41.68C138.955 41.0667 138.048 40.76 136.795 40.76C136.021 40.76 135.235 40.88 134.435 41.12C133.635 41.3333 132.688 41.6533 131.595 42.08C130.901 42.4267 130.395 42.6 130.075 42.6C129.595 42.6 129.195 42.4267 128.875 42.08C128.581 41.7333 128.435 41.28 128.435 40.72C128.435 40.2667 128.541 39.88 128.755 39.56C128.995 39.2133 129.381 38.8933 129.915 38.6C130.848 38.0933 131.955 37.6933 133.235 37.4C134.541 37.1067 135.821 36.96 137.075 36.96ZM135.835 53.72C137.168 53.72 138.248 53.28 139.075 52.4C139.928 51.4933 140.355 50.3333 140.355 48.92V48.08H139.635C137.848 48.08 136.461 48.16 135.475 48.32C134.488 48.48 133.781 48.76 133.355 49.16C132.928 49.56 132.715 50.1067 132.715 50.8C132.715 51.6533 133.008 52.36 133.595 52.92C134.208 53.4533 134.955 53.72 135.835 53.72ZM160.076 32.52C158.849 32.6 157.956 32.9733 157.396 33.64C156.836 34.3067 156.556 35.2667 156.556 36.52V37.44H159.956C161.449 37.44 162.196 38.0667 162.196 39.32C162.196 40.5733 161.449 41.2 159.956 41.2H156.556V54.84C156.556 55.6133 156.316 56.2 155.836 56.6C155.383 57 154.796 57.2 154.076 57.2C153.356 57.2 152.756 57 152.276 56.6C151.796 56.2 151.556 55.6133 151.556 54.84V41.2H149.556C148.063 41.2 147.316 40.5733 147.316 39.32C147.316 38.0667 148.063 37.44 149.556 37.44H151.556V37.16C151.556 34.6533 152.209 32.6933 153.516 31.28C154.849 29.84 156.716 29.0267 159.116 28.84L160.156 28.76C161.223 28.68 161.969 28.8 162.396 29.12C162.849 29.4133 163.076 29.88 163.076 30.52C163.076 31.6667 162.423 32.3067 161.116 32.44L160.076 32.52ZM174.06 32.52C172.834 32.6 171.94 32.9733 171.38 33.64C170.82 34.3067 170.54 35.2667 170.54 36.52V37.44H173.94C175.434 37.44 176.18 38.0667 176.18 39.32C176.18 40.5733 175.434 41.2 173.94 41.2H170.54V54.84C170.54 55.6133 170.3 56.2 169.82 56.6C169.367 57 168.78 57.2 168.06 57.2C167.34 57.2 166.74 57 166.26 56.6C165.78 56.2 165.54 55.6133 165.54 54.84V41.2H163.54C162.047 41.2 161.3 40.5733 161.3 39.32C161.3 38.0667 162.047 37.44 163.54 37.44H165.54V37.16C165.54 34.6533 166.194 32.6933 167.5 31.28C168.834 29.84 170.7 29.0267 173.1 28.84L174.14 28.76C175.207 28.68 175.954 28.8 176.38 29.12C176.834 29.4133 177.06 29.88 177.06 30.52C177.06 31.6667 176.407 32.3067 175.1 32.44L174.06 32.52Z" fill="#F8F8F8"/>
</svg>
